# xmcd
#
# Track frame offsets: 
#        150
#        18757
#        46582
#
# Disc length: 1048 seconds
#
# Revision: 0
# Processed by: cddbd v1.5.2PL0 Copyright (c) Steve Scherf et al.
# Submitted via: ExactAudioCopyFreeDBPlugin 1.0
#
DISCID=12041603
DTITLE=The Jeff Healey Band - I Tried
DYEAR=2000
DGENRE=Blues
TTITLE0=I Tried
TTITLE1=Feel Better (Live)
TTITLE2=See The Light (Live)
EXTD=
EXTT0=
EXTT1=
EXTT2=
PLAYORDER=
